<?xml version="1.0" encoding="utf-8"?>
<svg xmlns="http://www.w3.org/2000/svg" xmlns:xlink="http://www.w3.org/1999/xlink" xml:space="preserve" width="264" height="264" viewBox="0 0 264 264"><g fill="#ffffff">
<g transform="translate(80,16) scale(1.3733333333333)"><rect width="6" height="6"/></g>
<g transform="translate(104,16) scale(1.3733333333333)"><rect width="6" height="6"/></g>
<g transform="translate(120,16) scale(1.3733333333333)"><rect width="6" height="6"/></g>
<g transform="translate(136,16) scale(1.3733333333333)"><rect width="6" height="6"/></g>
<g transform="translate(168,16) scale(1.3733333333333)"><rect width="6" height="6"/></g>
<g transform="translate(176,16) scale(1.3733333333333)"><rect width="6" height="6"/></g>
<g transform="translate(104,24) scale(1.3733333333333)"><rect width="6" height="6"/></g>
<g transform="translate(120,24) scale(1.3733333333333)"><rect width="6" height="6"/></g>
<g transform="translate(128,24) scale(1.3733333333333)"><rect width="6" height="6"/></g>
<g transform="translate(144,24) scale(1.3733333333333)"><rect width="6" height="6"/></g>
<g transform="translate(88,32) scale(1.3733333333333)"><rect width="6" height="6"/></g>
<g transform="translate(104,32) scale(1.3733333333333)"><rect width="6" height="6"/></g>
<g transform="translate(112,32) scale(1.3733333333333)"><rect width="6" height="6"/></g>
<g transform="translate(128,32) scale(1.3733333333333)"><rect width="6" height="6"/></g>
<g transform="translate(160,32) scale(1.3733333333333)"><rect width="6" height="6"/></g>
<g transform="translate(168,32) scale(1.3733333333333)"><rect width="6" height="6"/></g>
<g transform="translate(88,40) scale(1.3733333333333)"><rect width="6" height="6"/></g>
<g transform="translate(112,40) scale(1.3733333333333)"><rect width="6" height="6"/></g>
<g transform="translate(120,40) scale(1.3733333333333)"><rect width="6" height="6"/></g>
<g transform="translate(128,40) scale(1.3733333333333)"><rect width="6" height="6"/></g>
<g transform="translate(152,40) scale(1.3733333333333)"><rect width="6" height="6"/></g>
<g transform="translate(176,40) scale(1.3733333333333)"><rect width="6" height="6"/></g>
<g transform="translate(80,48) scale(1.3733333333333)"><rect width="6" height="6"/></g>
<g transform="translate(88,48) scale(1.3733333333333)"><rect width="6" height="6"/></g>
<g transform="translate(96,48) scale(1.3733333333333)"><rect width="6" height="6"/></g>
<g transform="translate(112,48) scale(1.3733333333333)"><rect width="6" height="6"/></g>
<g transform="translate(128,48) scale(1.3733333333333)"><rect width="6" height="6"/></g>
<g transform="translate(136,48) scale(1.3733333333333)"><rect width="6" height="6"/></g>
<g transform="translate(160,48) scale(1.3733333333333)"><rect width="6" height="6"/></g>
<g transform="translate(168,48) scale(1.3733333333333)"><rect width="6" height="6"/></g>
<g transform="translate(176,48) scale(1.3733333333333)"><rect width="6" height="6"/></g>
<g transform="translate(80,56) scale(1.3733333333333)"><rect width="6" height="6"/></g>
<g transform="translate(96,56) scale(1.3733333333333)"><rect width="6" height="6"/></g>
<g transform="translate(104,56) scale(1.3733333333333)"><rect width="6" height="6"/></g>
<g transform="translate(120,56) scale(1.3733333333333)"><rect width="6" height="6"/></g>
<g transform="translate(144,56) scale(1.3733333333333)"><rect width="6" height="6"/></g>
<g transform="translate(152,56) scale(1.3733333333333)"><rect width="6" height="6"/></g>
<g transform="translate(160,56) scale(1.3733333333333)"><rect width="6" height="6"/></g>
<g transform="translate(176,56) scale(1.3733333333333)"><rect width="6" height="6"/></g>
<g transform="translate(80,64) scale(1.3733333333333)"><rect width="6" height="6"/></g>
<g transform="translate(96,64) scale(1.3733333333333)"><rect width="6" height="6"/></g>
<g transform="translate(112,64) scale(1.3733333333333)"><rect width="6" height="6"/></g>
<g transform="translate(128,64) scale(1.3733333333333)"><rect width="6" height="6"/></g>
<g transform="translate(144,64) scale(1.3733333333333)"><rect width="6" height="6"/></g>
<g transform="translate(160,64) scale(1.3733333333333)"><rect width="6" height="6"/></g>
<g transform="translate(176,64) scale(1.3733333333333)"><rect width="6" height="6"/></g>
<g transform="translate(88,72) scale(1.3733333333333)"><rect width="6" height="6"/></g>
<g transform="translate(104,72) scale(1.3733333333333)"><rect width="6" height="6"/></g>
<g transform="translate(120,72) scale(1.3733333333333)"><rect width="6" height="6"/></g>
<g transform="translate(128,72) scale(1.3733333333333)"><rect width="6" height="6"/></g>
<g transform="translate(136,72) scale(1.3733333333333)"><rect width="6" height="6"/></g>
<g transform="translate(144,72) scale(1.3733333333333)"><rect width="6" height="6"/></g>
<g transform="translate(24,80) scale(1.3733333333333)"><rect width="6" height="6"/></g>
<g transform="translate(32,80) scale(1.3733333333333)"><rect width="6" height="6"/></g>
<g transform="translate(40,80) scale(1.3733333333333)"><rect width="6" height="6"/></g>
<g transform="translate(48,80) scale(1.3733333333333)"><rect width="6" height="6"/></g>
<g transform="translate(56,80) scale(1.3733333333333)"><rect width="6" height="6"/></g>
<g transform="translate(64,80) scale(1.3733333333333)"><rect width="6" height="6"/></g>
<g transform="translate(72,80) scale(1.3733333333333)"><rect width="6" height="6"/></g>
<g transform="translate(96,80) scale(1.3733333333333)"><rect width="6" height="6"/></g>
<g transform="translate(104,80) scale(1.3733333333333)"><rect width="6" height="6"/></g>
<g transform="translate(112,80) scale(1.3733333333333)"><rect width="6" height="6"/></g>
<g transform="translate(160,80) scale(1.3733333333333)"><rect width="6" height="6"/></g>
<g transform="translate(168,80) scale(1.3733333333333)"><rect width="6" height="6"/></g>
<g transform="translate(176,80) scale(1.3733333333333)"><rect width="6" height="6"/></g>
<g transform="translate(200,80) scale(1.3733333333333)"><rect width="6" height="6"/></g>
<g transform="translate(208,80) scale(1.3733333333333)"><rect width="6" height="6"/></g>
<g transform="translate(240,80) scale(1.3733333333333)"><rect width="6" height="6"/></g>
<g transform="translate(56,88) scale(1.3733333333333)"><rect width="6" height="6"/></g>
<g transform="translate(72,88) scale(1.3733333333333)"><rect width="6" height="6"/></g>
<g transform="translate(88,88) scale(1.3733333333333)"><rect width="6" height="6"/></g>
<g transform="translate(96,88) scale(1.3733333333333)"><rect width="6" height="6"/></g>
<g transform="translate(104,88) scale(1.3733333333333)"><rect width="6" height="6"/></g>
<g transform="translate(112,88) scale(1.3733333333333)"><rect width="6" height="6"/></g>
<g transform="translate(120,88) scale(1.3733333333333)"><rect width="6" height="6"/></g>
<g transform="translate(152,88) scale(1.3733333333333)"><rect width="6" height="6"/></g>
<g transform="translate(160,88) scale(1.3733333333333)"><rect width="6" height="6"/></g>
<g transform="translate(168,88) scale(1.3733333333333)"><rect width="6" height="6"/></g>
<g transform="translate(176,88) scale(1.3733333333333)"><rect width="6" height="6"/></g>
<g transform="translate(184,88) scale(1.3733333333333)"><rect width="6" height="6"/></g>
<g transform="translate(192,88) scale(1.3733333333333)"><rect width="6" height="6"/></g>
<g transform="translate(200,88) scale(1.3733333333333)"><rect width="6" height="6"/></g>
<g transform="translate(208,88) scale(1.3733333333333)"><rect width="6" height="6"/></g>
<g transform="translate(216,88) scale(1.3733333333333)"><rect width="6" height="6"/></g>
<g transform="translate(224,88) scale(1.3733333333333)"><rect width="6" height="6"/></g>
<g transform="translate(240,88) scale(1.3733333333333)"><rect width="6" height="6"/></g>
<g transform="translate(24,96) scale(1.3733333333333)"><rect width="6" height="6"/></g>
<g transform="translate(56,96) scale(1.3733333333333)"><rect width="6" height="6"/></g>
<g transform="translate(64,96) scale(1.3733333333333)"><rect width="6" height="6"/></g>
<g transform="translate(72,96) scale(1.3733333333333)"><rect width="6" height="6"/></g>
<g transform="translate(104,96) scale(1.3733333333333)"><rect width="6" height="6"/></g>
<g transform="translate(112,96) scale(1.3733333333333)"><rect width="6" height="6"/></g>
<g transform="translate(128,96) scale(1.3733333333333)"><rect width="6" height="6"/></g>
<g transform="translate(160,96) scale(1.3733333333333)"><rect width="6" height="6"/></g>
<g transform="translate(184,96) scale(1.3733333333333)"><rect width="6" height="6"/></g>
<g transform="translate(192,96) scale(1.3733333333333)"><rect width="6" height="6"/></g>
<g transform="translate(200,96) scale(1.3733333333333)"><rect width="6" height="6"/></g>
<g transform="translate(208,96) scale(1.3733333333333)"><rect width="6" height="6"/></g>
<g transform="translate(216,96) scale(1.3733333333333)"><rect width="6" height="6"/></g>
<g transform="translate(16,104) scale(1.3733333333333)"><rect width="6" height="6"/></g>
<g transform="translate(40,104) scale(1.3733333333333)"><rect width="6" height="6"/></g>
<g transform="translate(48,104) scale(1.3733333333333)"><rect width="6" height="6"/></g>
<g transform="translate(80,104) scale(1.3733333333333)"><rect width="6" height="6"/></g>
<g transform="translate(88,104) scale(1.3733333333333)"><rect width="6" height="6"/></g>
<g transform="translate(96,104) scale(1.3733333333333)"><rect width="6" height="6"/></g>
<g transform="translate(112,104) scale(1.3733333333333)"><rect width="6" height="6"/></g>
<g transform="translate(120,104) scale(1.3733333333333)"><rect width="6" height="6"/></g>
<g transform="translate(128,104) scale(1.3733333333333)"><rect width="6" height="6"/></g>
<g transform="translate(144,104) scale(1.3733333333333)"><rect width="6" height="6"/></g>
<g transform="translate(160,104) scale(1.3733333333333)"><rect width="6" height="6"/></g>
<g transform="translate(176,104) scale(1.3733333333333)"><rect width="6" height="6"/></g>
<g transform="translate(184,104) scale(1.3733333333333)"><rect width="6" height="6"/></g>
<g transform="translate(192,104) scale(1.3733333333333)"><rect width="6" height="6"/></g>
<g transform="translate(208,104) scale(1.3733333333333)"><rect width="6" height="6"/></g>
<g transform="translate(232,104) scale(1.3733333333333)"><rect width="6" height="6"/></g>
<g transform="translate(16,112) scale(1.3733333333333)"><rect width="6" height="6"/></g>
<g transform="translate(32,112) scale(1.3733333333333)"><rect width="6" height="6"/></g>
<g transform="translate(40,112) scale(1.3733333333333)"><rect width="6" height="6"/></g>
<g transform="translate(56,112) scale(1.3733333333333)"><rect width="6" height="6"/></g>
<g transform="translate(64,112) scale(1.3733333333333)"><rect width="6" height="6"/></g>
<g transform="translate(80,112) scale(1.3733333333333)"><rect width="6" height="6"/></g>
<g transform="translate(88,112) scale(1.3733333333333)"><rect width="6" height="6"/></g>
<g transform="translate(104,112) scale(1.3733333333333)"><rect width="6" height="6"/></g>
<g transform="translate(120,112) scale(1.3733333333333)"><rect width="6" height="6"/></g>
<g transform="translate(128,112) scale(1.3733333333333)"><rect width="6" height="6"/></g>
<g transform="translate(136,112) scale(1.3733333333333)"><rect width="6" height="6"/></g>
<g transform="translate(144,112) scale(1.3733333333333)"><rect width="6" height="6"/></g>
<g transform="translate(152,112) scale(1.3733333333333)"><rect width="6" height="6"/></g>
<g transform="translate(168,112) scale(1.3733333333333)"><rect width="6" height="6"/></g>
<g transform="translate(184,112) scale(1.3733333333333)"><rect width="6" height="6"/></g>
<g transform="translate(200,112) scale(1.3733333333333)"><rect width="6" height="6"/></g>
<g transform="translate(224,112) scale(1.3733333333333)"><rect width="6" height="6"/></g>
<g transform="translate(232,112) scale(1.3733333333333)"><rect width="6" height="6"/></g>
<g transform="translate(240,112) scale(1.3733333333333)"><rect width="6" height="6"/></g>
<g transform="translate(40,120) scale(1.3733333333333)"><rect width="6" height="6"/></g>
<g transform="translate(72,120) scale(1.3733333333333)"><rect width="6" height="6"/></g>
<g transform="translate(152,120) scale(1.3733333333333)"><rect width="6" height="6"/></g>
<g transform="translate(168,120) scale(1.3733333333333)"><rect width="6" height="6"/></g>
<g transform="translate(176,120) scale(1.3733333333333)"><rect width="6" height="6"/></g>
<g transform="translate(184,120) scale(1.3733333333333)"><rect width="6" height="6"/></g>
<g transform="translate(192,120) scale(1.3733333333333)"><rect width="6" height="6"/></g>
<g transform="translate(208,120) scale(1.3733333333333)"><rect width="6" height="6"/></g>
<g transform="translate(216,120) scale(1.3733333333333)"><rect width="6" height="6"/></g>
<g transform="translate(232,120) scale(1.3733333333333)"><rect width="6" height="6"/></g>
<g transform="translate(240,120) scale(1.3733333333333)"><rect width="6" height="6"/></g>
<g transform="translate(40,128) scale(1.3733333333333)"><rect width="6" height="6"/></g>
<g transform="translate(64,128) scale(1.3733333333333)"><rect width="6" height="6"/></g>
<g transform="translate(72,128) scale(1.3733333333333)"><rect width="6" height="6"/></g>
<g transform="translate(80,128) scale(1.3733333333333)"><rect width="6" height="6"/></g>
<g transform="translate(120,128) scale(1.3733333333333)"><rect width="6" height="6"/></g>
<g transform="translate(128,128) scale(1.3733333333333)"><rect width="6" height="6"/></g>
<g transform="translate(136,128) scale(1.3733333333333)"><rect width="6" height="6"/></g>
<g transform="translate(152,128) scale(1.3733333333333)"><rect width="6" height="6"/></g>
<g transform="translate(176,128) scale(1.3733333333333)"><rect width="6" height="6"/></g>
<g transform="translate(192,128) scale(1.3733333333333)"><rect width="6" height="6"/></g>
<g transform="translate(200,128) scale(1.3733333333333)"><rect width="6" height="6"/></g>
<g transform="translate(16,136) scale(1.3733333333333)"><rect width="6" height="6"/></g>
<g transform="translate(32,136) scale(1.3733333333333)"><rect width="6" height="6"/></g>
<g transform="translate(40,136) scale(1.3733333333333)"><rect width="6" height="6"/></g>
<g transform="translate(72,136) scale(1.3733333333333)"><rect width="6" height="6"/></g>
<g transform="translate(80,136) scale(1.3733333333333)"><rect width="6" height="6"/></g>
<g transform="translate(96,136) scale(1.3733333333333)"><rect width="6" height="6"/></g>
<g transform="translate(120,136) scale(1.3733333333333)"><rect width="6" height="6"/></g>
<g transform="translate(136,136) scale(1.3733333333333)"><rect width="6" height="6"/></g>
<g transform="translate(144,136) scale(1.3733333333333)"><rect width="6" height="6"/></g>
<g transform="translate(152,136) scale(1.3733333333333)"><rect width="6" height="6"/></g>
<g transform="translate(160,136) scale(1.3733333333333)"><rect width="6" height="6"/></g>
<g transform="translate(168,136) scale(1.3733333333333)"><rect width="6" height="6"/></g>
<g transform="translate(176,136) scale(1.3733333333333)"><rect width="6" height="6"/></g>
<g transform="translate(184,136) scale(1.3733333333333)"><rect width="6" height="6"/></g>
<g transform="translate(192,136) scale(1.3733333333333)"><rect width="6" height="6"/></g>
<g transform="translate(208,136) scale(1.3733333333333)"><rect width="6" height="6"/></g>
<g transform="translate(216,136) scale(1.3733333333333)"><rect width="6" height="6"/></g>
<g transform="translate(240,136) scale(1.3733333333333)"><rect width="6" height="6"/></g>
<g transform="translate(16,144) scale(1.3733333333333)"><rect width="6" height="6"/></g>
<g transform="translate(24,144) scale(1.3733333333333)"><rect width="6" height="6"/></g>
<g transform="translate(32,144) scale(1.3733333333333)"><rect width="6" height="6"/></g>
<g transform="translate(40,144) scale(1.3733333333333)"><rect width="6" height="6"/></g>
<g transform="translate(48,144) scale(1.3733333333333)"><rect width="6" height="6"/></g>
<g transform="translate(56,144) scale(1.3733333333333)"><rect width="6" height="6"/></g>
<g transform="translate(64,144) scale(1.3733333333333)"><rect width="6" height="6"/></g>
<g transform="translate(80,144) scale(1.3733333333333)"><rect width="6" height="6"/></g>
<g transform="translate(88,144) scale(1.3733333333333)"><rect width="6" height="6"/></g>
<g transform="translate(96,144) scale(1.3733333333333)"><rect width="6" height="6"/></g>
<g transform="translate(104,144) scale(1.3733333333333)"><rect width="6" height="6"/></g>
<g transform="translate(112,144) scale(1.3733333333333)"><rect width="6" height="6"/></g>
<g transform="translate(120,144) scale(1.3733333333333)"><rect width="6" height="6"/></g>
<g transform="translate(128,144) scale(1.3733333333333)"><rect width="6" height="6"/></g>
<g transform="translate(144,144) scale(1.3733333333333)"><rect width="6" height="6"/></g>
<g transform="translate(216,144) scale(1.3733333333333)"><rect width="6" height="6"/></g>
<g transform="translate(224,144) scale(1.3733333333333)"><rect width="6" height="6"/></g>
<g transform="translate(240,144) scale(1.3733333333333)"><rect width="6" height="6"/></g>
<g transform="translate(16,152) scale(1.3733333333333)"><rect width="6" height="6"/></g>
<g transform="translate(40,152) scale(1.3733333333333)"><rect width="6" height="6"/></g>
<g transform="translate(48,152) scale(1.3733333333333)"><rect width="6" height="6"/></g>
<g transform="translate(56,152) scale(1.3733333333333)"><rect width="6" height="6"/></g>
<g transform="translate(80,152) scale(1.3733333333333)"><rect width="6" height="6"/></g>
<g transform="translate(88,152) scale(1.3733333333333)"><rect width="6" height="6"/></g>
<g transform="translate(96,152) scale(1.3733333333333)"><rect width="6" height="6"/></g>
<g transform="translate(112,152) scale(1.3733333333333)"><rect width="6" height="6"/></g>
<g transform="translate(120,152) scale(1.3733333333333)"><rect width="6" height="6"/></g>
<g transform="translate(136,152) scale(1.3733333333333)"><rect width="6" height="6"/></g>
<g transform="translate(160,152) scale(1.3733333333333)"><rect width="6" height="6"/></g>
<g transform="translate(168,152) scale(1.3733333333333)"><rect width="6" height="6"/></g>
<g transform="translate(176,152) scale(1.3733333333333)"><rect width="6" height="6"/></g>
<g transform="translate(192,152) scale(1.3733333333333)"><rect width="6" height="6"/></g>
<g transform="translate(200,152) scale(1.3733333333333)"><rect width="6" height="6"/></g>
<g transform="translate(208,152) scale(1.3733333333333)"><rect width="6" height="6"/></g>
<g transform="translate(216,152) scale(1.3733333333333)"><rect width="6" height="6"/></g>
<g transform="translate(224,152) scale(1.3733333333333)"><rect width="6" height="6"/></g>
<g transform="translate(232,152) scale(1.3733333333333)"><rect width="6" height="6"/></g>
<g transform="translate(240,152) scale(1.3733333333333)"><rect width="6" height="6"/></g>
<g transform="translate(16,160) scale(1.3733333333333)"><rect width="6" height="6"/></g>
<g transform="translate(32,160) scale(1.3733333333333)"><rect width="6" height="6"/></g>
<g transform="translate(40,160) scale(1.3733333333333)"><rect width="6" height="6"/></g>
<g transform="translate(64,160) scale(1.3733333333333)"><rect width="6" height="6"/></g>
<g transform="translate(96,160) scale(1.3733333333333)"><rect width="6" height="6"/></g>
<g transform="translate(128,160) scale(1.3733333333333)"><rect width="6" height="6"/></g>
<g transform="translate(136,160) scale(1.3733333333333)"><rect width="6" height="6"/></g>
<g transform="translate(144,160) scale(1.3733333333333)"><rect width="6" height="6"/></g>
<g transform="translate(176,160) scale(1.3733333333333)"><rect width="6" height="6"/></g>
<g transform="translate(192,160) scale(1.3733333333333)"><rect width="6" height="6"/></g>
<g transform="translate(200,160) scale(1.3733333333333)"><rect width="6" height="6"/></g>
<g transform="translate(208,160) scale(1.3733333333333)"><rect width="6" height="6"/></g>
<g transform="translate(216,160) scale(1.3733333333333)"><rect width="6" height="6"/></g>
<g transform="translate(224,160) scale(1.3733333333333)"><rect width="6" height="6"/></g>
<g transform="translate(16,168) scale(1.3733333333333)"><rect width="6" height="6"/></g>
<g transform="translate(32,168) scale(1.3733333333333)"><rect width="6" height="6"/></g>
<g transform="translate(48,168) scale(1.3733333333333)"><rect width="6" height="6"/></g>
<g transform="translate(56,168) scale(1.3733333333333)"><rect width="6" height="6"/></g>
<g transform="translate(104,168) scale(1.3733333333333)"><rect width="6" height="6"/></g>
<g transform="translate(120,168) scale(1.3733333333333)"><rect width="6" height="6"/></g>
<g transform="translate(128,168) scale(1.3733333333333)"><rect width="6" height="6"/></g>
<g transform="translate(136,168) scale(1.3733333333333)"><rect width="6" height="6"/></g>
<g transform="translate(176,168) scale(1.3733333333333)"><rect width="6" height="6"/></g>
<g transform="translate(192,168) scale(1.3733333333333)"><rect width="6" height="6"/></g>
<g transform="translate(200,168) scale(1.3733333333333)"><rect width="6" height="6"/></g>
<g transform="translate(216,168) scale(1.3733333333333)"><rect width="6" height="6"/></g>
<g transform="translate(232,168) scale(1.3733333333333)"><rect width="6" height="6"/></g>
<g transform="translate(16,176) scale(1.3733333333333)"><rect width="6" height="6"/></g>
<g transform="translate(48,176) scale(1.3733333333333)"><rect width="6" height="6"/></g>
<g transform="translate(64,176) scale(1.3733333333333)"><rect width="6" height="6"/></g>
<g transform="translate(80,176) scale(1.3733333333333)"><rect width="6" height="6"/></g>
<g transform="translate(88,176) scale(1.3733333333333)"><rect width="6" height="6"/></g>
<g transform="translate(104,176) scale(1.3733333333333)"><rect width="6" height="6"/></g>
<g transform="translate(112,176) scale(1.3733333333333)"><rect width="6" height="6"/></g>
<g transform="translate(136,176) scale(1.3733333333333)"><rect width="6" height="6"/></g>
<g transform="translate(152,176) scale(1.3733333333333)"><rect width="6" height="6"/></g>
<g transform="translate(176,176) scale(1.3733333333333)"><rect width="6" height="6"/></g>
<g transform="translate(184,176) scale(1.3733333333333)"><rect width="6" height="6"/></g>
<g transform="translate(192,176) scale(1.3733333333333)"><rect width="6" height="6"/></g>
<g transform="translate(200,176) scale(1.3733333333333)"><rect width="6" height="6"/></g>
<g transform="translate(208,176) scale(1.3733333333333)"><rect width="6" height="6"/></g>
<g transform="translate(224,176) scale(1.3733333333333)"><rect width="6" height="6"/></g>
<g transform="translate(240,176) scale(1.3733333333333)"><rect width="6" height="6"/></g>
<g transform="translate(80,184) scale(1.3733333333333)"><rect width="6" height="6"/></g>
<g transform="translate(88,184) scale(1.3733333333333)"><rect width="6" height="6"/></g>
<g transform="translate(104,184) scale(1.3733333333333)"><rect width="6" height="6"/></g>
<g transform="translate(144,184) scale(1.3733333333333)"><rect width="6" height="6"/></g>
<g transform="translate(160,184) scale(1.3733333333333)"><rect width="6" height="6"/></g>
<g transform="translate(176,184) scale(1.3733333333333)"><rect width="6" height="6"/></g>
<g transform="translate(208,184) scale(1.3733333333333)"><rect width="6" height="6"/></g>
<g transform="translate(216,184) scale(1.3733333333333)"><rect width="6" height="6"/></g>
<g transform="translate(232,184) scale(1.3733333333333)"><rect width="6" height="6"/></g>
<g transform="translate(240,184) scale(1.3733333333333)"><rect width="6" height="6"/></g>
<g transform="translate(80,192) scale(1.3733333333333)"><rect width="6" height="6"/></g>
<g transform="translate(88,192) scale(1.3733333333333)"><rect width="6" height="6"/></g>
<g transform="translate(96,192) scale(1.3733333333333)"><rect width="6" height="6"/></g>
<g transform="translate(112,192) scale(1.3733333333333)"><rect width="6" height="6"/></g>
<g transform="translate(128,192) scale(1.3733333333333)"><rect width="6" height="6"/></g>
<g transform="translate(136,192) scale(1.3733333333333)"><rect width="6" height="6"/></g>
<g transform="translate(160,192) scale(1.3733333333333)"><rect width="6" height="6"/></g>
<g transform="translate(168,192) scale(1.3733333333333)"><rect width="6" height="6"/></g>
<g transform="translate(176,192) scale(1.3733333333333)"><rect width="6" height="6"/></g>
<g transform="translate(192,192) scale(1.3733333333333)"><rect width="6" height="6"/></g>
<g transform="translate(208,192) scale(1.3733333333333)"><rect width="6" height="6"/></g>
<g transform="translate(80,200) scale(1.3733333333333)"><rect width="6" height="6"/></g>
<g transform="translate(88,200) scale(1.3733333333333)"><rect width="6" height="6"/></g>
<g transform="translate(96,200) scale(1.3733333333333)"><rect width="6" height="6"/></g>
<g transform="translate(104,200) scale(1.3733333333333)"><rect width="6" height="6"/></g>
<g transform="translate(120,200) scale(1.3733333333333)"><rect width="6" height="6"/></g>
<g transform="translate(144,200) scale(1.3733333333333)"><rect width="6" height="6"/></g>
<g transform="translate(168,200) scale(1.3733333333333)"><rect width="6" height="6"/></g>
<g transform="translate(176,200) scale(1.3733333333333)"><rect width="6" height="6"/></g>
<g transform="translate(208,200) scale(1.3733333333333)"><rect width="6" height="6"/></g>
<g transform="translate(216,200) scale(1.3733333333333)"><rect width="6" height="6"/></g>
<g transform="translate(240,200) scale(1.3733333333333)"><rect width="6" height="6"/></g>
<g transform="translate(80,208) scale(1.3733333333333)"><rect width="6" height="6"/></g>
<g transform="translate(88,208) scale(1.3733333333333)"><rect width="6" height="6"/></g>
<g transform="translate(96,208) scale(1.3733333333333)"><rect width="6" height="6"/></g>
<g transform="translate(104,208) scale(1.3733333333333)"><rect width="6" height="6"/></g>
<g transform="translate(120,208) scale(1.3733333333333)"><rect width="6" height="6"/></g>
<g transform="translate(128,208) scale(1.3733333333333)"><rect width="6" height="6"/></g>
<g transform="translate(160,208) scale(1.3733333333333)"><rect width="6" height="6"/></g>
<g transform="translate(176,208) scale(1.3733333333333)"><rect width="6" height="6"/></g>
<g transform="translate(184,208) scale(1.3733333333333)"><rect width="6" height="6"/></g>
<g transform="translate(192,208) scale(1.3733333333333)"><rect width="6" height="6"/></g>
<g transform="translate(200,208) scale(1.3733333333333)"><rect width="6" height="6"/></g>
<g transform="translate(208,208) scale(1.3733333333333)"><rect width="6" height="6"/></g>
<g transform="translate(216,208) scale(1.3733333333333)"><rect width="6" height="6"/></g>
<g transform="translate(224,208) scale(1.3733333333333)"><rect width="6" height="6"/></g>
<g transform="translate(232,208) scale(1.3733333333333)"><rect width="6" height="6"/></g>
<g transform="translate(80,216) scale(1.3733333333333)"><rect width="6" height="6"/></g>
<g transform="translate(96,216) scale(1.3733333333333)"><rect width="6" height="6"/></g>
<g transform="translate(120,216) scale(1.3733333333333)"><rect width="6" height="6"/></g>
<g transform="translate(136,216) scale(1.3733333333333)"><rect width="6" height="6"/></g>
<g transform="translate(144,216) scale(1.3733333333333)"><rect width="6" height="6"/></g>
<g transform="translate(168,216) scale(1.3733333333333)"><rect width="6" height="6"/></g>
<g transform="translate(176,216) scale(1.3733333333333)"><rect width="6" height="6"/></g>
<g transform="translate(184,216) scale(1.3733333333333)"><rect width="6" height="6"/></g>
<g transform="translate(200,216) scale(1.3733333333333)"><rect width="6" height="6"/></g>
<g transform="translate(224,216) scale(1.3733333333333)"><rect width="6" height="6"/></g>
<g transform="translate(80,224) scale(1.3733333333333)"><rect width="6" height="6"/></g>
<g transform="translate(88,224) scale(1.3733333333333)"><rect width="6" height="6"/></g>
<g transform="translate(112,224) scale(1.3733333333333)"><rect width="6" height="6"/></g>
<g transform="translate(152,224) scale(1.3733333333333)"><rect width="6" height="6"/></g>
<g transform="translate(160,224) scale(1.3733333333333)"><rect width="6" height="6"/></g>
<g transform="translate(168,224) scale(1.3733333333333)"><rect width="6" height="6"/></g>
<g transform="translate(176,224) scale(1.3733333333333)"><rect width="6" height="6"/></g>
<g transform="translate(184,224) scale(1.3733333333333)"><rect width="6" height="6"/></g>
<g transform="translate(192,224) scale(1.3733333333333)"><rect width="6" height="6"/></g>
<g transform="translate(200,224) scale(1.3733333333333)"><rect width="6" height="6"/></g>
<g transform="translate(208,224) scale(1.3733333333333)"><rect width="6" height="6"/></g>
<g transform="translate(224,224) scale(1.3733333333333)"><rect width="6" height="6"/></g>
<g transform="translate(232,224) scale(1.3733333333333)"><rect width="6" height="6"/></g>
<g transform="translate(80,232) scale(1.3733333333333)"><rect width="6" height="6"/></g>
<g transform="translate(104,232) scale(1.3733333333333)"><rect width="6" height="6"/></g>
<g transform="translate(112,232) scale(1.3733333333333)"><rect width="6" height="6"/></g>
<g transform="translate(120,232) scale(1.3733333333333)"><rect width="6" height="6"/></g>
<g transform="translate(128,232) scale(1.3733333333333)"><rect width="6" height="6"/></g>
<g transform="translate(144,232) scale(1.3733333333333)"><rect width="6" height="6"/></g>
<g transform="translate(160,232) scale(1.3733333333333)"><rect width="6" height="6"/></g>
<g transform="translate(176,232) scale(1.3733333333333)"><rect width="6" height="6"/></g>
<g transform="translate(208,232) scale(1.3733333333333)"><rect width="6" height="6"/></g>
<g transform="translate(216,232) scale(1.3733333333333)"><rect width="6" height="6"/></g>
<g transform="translate(232,232) scale(1.3733333333333)"><rect width="6" height="6"/></g>
<g transform="translate(104,240) scale(1.3733333333333)"><rect width="6" height="6"/></g>
<g transform="translate(120,240) scale(1.3733333333333)"><rect width="6" height="6"/></g>
<g transform="translate(128,240) scale(1.3733333333333)"><rect width="6" height="6"/></g>
<g transform="translate(152,240) scale(1.3733333333333)"><rect width="6" height="6"/></g>
<g transform="translate(160,240) scale(1.3733333333333)"><rect width="6" height="6"/></g>
<g transform="translate(168,240) scale(1.3733333333333)"><rect width="6" height="6"/></g>
<g transform="translate(208,240) scale(1.3733333333333)"><rect width="6" height="6"/></g>
<g transform="translate(224,240) scale(1.3733333333333)"><rect width="6" height="6"/></g>
<g transform="translate(16,16)"><g transform="scale(4)"><path d="M0,0v14h14V0H0z M12,12H2V2h10V12z"/></g></g>
<g transform="translate(192,16)"><g transform="scale(4)"><path d="M0,0v14h14V0H0z M12,12H2V2h10V12z"/></g></g>
<g transform="translate(16,192)"><g transform="scale(4)"><path d="M0,0v14h14V0H0z M12,12H2V2h10V12z"/></g></g>
<g transform="translate(32,32)"><g transform="scale(4)"><rect width="6" height="6"/></g></g>
<g transform="translate(208,32)"><g transform="scale(4)"><rect width="6" height="6"/></g></g>
<g transform="translate(32,208)"><g transform="scale(4)"><rect width="6" height="6"/></g></g>
</g></svg>
